# xmcd
#
# Track frame offsets:
#	150
#	19980
#	38994
#	51851
#	72129
#	95895
#	127871
#	145890
#	159750
#	182179
#	198938
#	221058
#
# Disc length: 3151 seconds
#
# Revision: 4
# Processed by: cddbd v1.5.2PL0 Copyright (c) Steve Scherf et al.
# Submitted via: EasyCDDAExtractor 16.0.6.1
#
DISCID=ac0c4d0c
DTITLE=Vargas Blues Band - R-695 Gipsy Boogie
DYEAR=1900
DGENRE=Blues
TTITLE0=Body Shock
TTITLE1=Illegally
TTITLE2=Havana Getaway
TTITLE3=Chill Out (S calo)
TTITLE4=Blues For My Baby
TTITLE5=Back Alley Blues
TTITLE6=Gipsy Boogie
TTITLE7=Scratch Me Back
TTITLE8=A Real Mother For Ya
TTITLE9=Born Under A Bad Sign
TTITLE10=I Need Your Love So Bad
TTITLE11=Blues Hondo
EXTD=
EXTT0=
EXTT1=
EXTT2=
EXTT3=
EXTT4=
EXTT5=
EXTT6=
EXTT7=
EXTT8=
EXTT9=
EXTT10=
EXTT11=
PLAYORDER=
